# xmcd
#
# Track frame offsets:
#	150
#	18771
#	30795
#	44056
#	61017
#	80143
#	96209
#	114914
#	128438
#	141399
#	157969
#	178376
#	189278
#
# Disc length: 2637 seconds
# Revision: 0
# Processed by: cddbd v1.5.2PL0 Copyright (c) Steve Scherf et al.
# Submitted via: dBpowerAMP V12.0
#
DISCID=9f0a4b0d
DTITLE=Nancy McCallion - Nancy McCallion
DYEAR=1900
DGENRE=
TTITLE0=If It's A Party I'm Staying
TTITLE1=The Leaving Kind
TTITLE2=Lonesome Time
TTITLE3=Money's Moving Up
TTITLE4=Reckless Child
TTITLE5=Ain't Makin' Love
TTITLE6=Cold Hearted Woman
TTITLE7=Elvis Again
TTITLE8=Give Me My Own True Love
TTITLE9=One Day I Went Out Walking
TTITLE10=Moon Over The Interstate
TTITLE11=Misery
TTITLE12=But I'm Fine
EXTD=
EXTT0=
EXTT1=
EXTT2=
EXTT3=
EXTT4=
EXTT5=
EXTT6=
EXTT7=
EXTT8=
EXTT9=
EXTT10=
EXTT11=
EXTT12=
PLAYORDER=
